<svg xmlns="http://www.w3.org/2000/svg" viewBox="0 0 100 100">
  <defs>
    <radialGradient id="bgr" cx="50%" cy="40%" r="60%">
      <stop offset="0%" style="stop-color:#f78166;stop-opacity:0.2"/>
      <stop offset="100%" style="stop-color:#f78166;stop-opacity:0.08"/>
    </radialGradient>
  </defs>
  <!-- Background -->
  <rect width="100" height="100" fill="#f8f9fa"/>
  <rect width="100" height="100" fill="url(#bgr)"/>
  
  <!-- Shoulders / clothing -->
  <path d="M18 98 Q24 74 50 68 Q76 74 82 98 Z" fill="#f78166" opacity="0.85"/>
  <path d="M24 98 Q30 78 50 72 Q70 78 76 98 Z" fill="#f78166"/>
  
  <!-- Neck -->
  <path d="M44 57 Q44 68 50 70 Q56 68 56 57 Z" fill="#FDDBB4"/>
  
  <!-- Head -->
  <ellipse cx="50" cy="42" rx="19" ry="21" fill="#FDDBB4"/>
  
  <!-- Hair back layer -->
  <ellipse cx="50" cy="26" rx="21" ry="13" fill="#7A4828"/>
  
  <ellipse cx="50" cy="27" rx="20" ry="11" fill="#7A4828"/>
  <path d="M30 30 Q28 48 30 58 Q33 54 35 58 Q37 48 38 36 Z" fill="#7A4828"/>
  <path d="M70 30 Q72 48 70 58 Q67 54 65 58 Q63 48 62 36 Z" fill="#7A4828"/>
  
  <!-- Ears -->
  <ellipse cx="31" cy="44" rx="3" ry="4" fill="#E8A87C"/>
  <ellipse cx="69" cy="44" rx="3" ry="4" fill="#E8A87C"/>
  
  <!-- Jaw shadow -->
  <ellipse cx="50" cy="58" rx="14" ry="5" fill="#C8956C" opacity="0.2"/>
  
  <!-- Eyes white -->
  <ellipse cx="43" cy="42" rx="4" ry="3.5" fill="white"/>
  <ellipse cx="57" cy="42" rx="4" ry="3.5" fill="white"/>
  
  <!-- Iris -->
  <circle cx="43.3" cy="42.3" r="2.6" fill="#5C4A1A"/>
  <circle cx="57.3" cy="42.3" r="2.6" fill="#5C4A1A"/>
  
  <!-- Pupil -->
  <circle cx="43.3" cy="42.3" r="1.4" fill="#0A0A0A"/>
  <circle cx="57.3" cy="42.3" r="1.4" fill="#0A0A0A"/>
  
  <!-- Eye shine -->
  <circle cx="44" cy="41.5" r="0.8" fill="white"/>
  <circle cx="58" cy="41.5" r="0.8" fill="white"/>
  
  <!-- Eyelashes top -->
  <path d="M39 39.5 Q43 38 47 39.5" stroke="#1A0A05" stroke-width="1.2" fill="none"/>
  <path d="M53 39.5 Q57 38 61 39.5" stroke="#1A0A05" stroke-width="1.2" fill="none"/>
  
  <!-- Nose -->
  <path d="M48 47 Q46 51 47.5 53 Q50 54 52.5 53 Q54 51 52 47" stroke="#C8956C" stroke-width="1" fill="none" opacity="0.6"/>
  
  <!-- Mouth -->
  <path d="M43.5 57.5 Q50 62 56.5 57.5" stroke="#C8956C" stroke-width="1.5" fill="none" stroke-linecap="round"/>
  <path d="M45 57.5 Q50 59.5 55 57.5" fill="#C8956C" opacity="0.3"/>
  
  <!-- Blush -->
  <circle cx="37" cy="50" r="5" fill="#FF9AA2" opacity="0.3"/>
  <circle cx="63" cy="50" r="5" fill="#FF9AA2" opacity="0.3"/>
  
  <!-- Badge -->
  <circle cx="80" cy="80" r="13" fill="#f78166"/>
  <text x="80" y="85" text-anchor="middle" font-family="system-ui,-apple-system,sans-serif" font-size="8.5" font-weight="700" fill="white">IC</text>
</svg>