<svg xmlns="http://www.w3.org/2000/svg" viewBox="0 0 120 120">
<defs>
<linearGradient id="bg" x1="0" y1="0" x2="1" y2="1"><stop offset="0%" stop-color="#34d399"/><stop offset="100%" stop-color="#047857"/></linearGradient>
<linearGradient id="skin" x1="0" y1="0" x2="0" y2="1"><stop offset="0%" stop-color="#f5deb8"/><stop offset="100%" stop-color="#dcc8a0"/></linearGradient>
</defs>
<circle cx="60" cy="60" r="60" fill="url(#bg)"/>
<!-- Neck -->
<path d="M50,82 Q50,88 49,96 L71,96 Q70,88 70,82 Z" fill="url(#skin)"/>
<!-- Blazer -->
<path d="M30,120 Q30,95 49,96 L60,106 L71,96 Q90,95 90,120 Z" fill="#18181b"/>
<!-- Blouse -->
<path d="M49,96 L56,102 L60,100 L64,102 L71,96 Q68,94 60,98 Q52,94 49,96 Z" fill="#d1fae5"/>
<!-- Face -->
<ellipse cx="60" cy="58" rx="21" ry="25" fill="url(#skin)"/>
<!-- Hair straight long -->
<path d="M39,50 Q38,28 60,26 Q82,28 81,50 L79,46 Q77,32 60,30 Q43,32 41,46 Z" fill="#0a0a0a"/>
<path d="M39,50 Q37,60 36,75 Q38,68 40,58 Z" fill="#0a0a0a"/>
<path d="M81,50 Q83,60 84,75 Q82,68 80,58 Z" fill="#0a0a0a"/>
<!-- Eyes -->
<path d="M45,55 Q50,53 55,56 Q50,57 45,55 Z" fill="#1a1a2e"/>
<path d="M65,56 Q70,53 75,55 Q70,57 65,56 Z" fill="#1a1a2e"/>
<circle cx="50" cy="55.5" r="0.8" fill="white" opacity="0.5"/>
<circle cx="70" cy="55.5" r="0.8" fill="white" opacity="0.5"/>
<!-- Eyebrows -->
<path d="M45,51 Q50,49.5 55,52" stroke="#0a0a0a" stroke-width="1" fill="none"/>
<path d="M65,52 Q70,49.5 75,51" stroke="#0a0a0a" stroke-width="1" fill="none"/>
<!-- Nose -->
<path d="M60,58 Q58,63 58,65 Q60,66 62,65 Q62,63 60,58" fill="#d4b890" opacity="0.35"/>
<!-- Smile -->
<path d="M53,71 Q60,75 67,71" stroke="#c0957a" stroke-width="1.2" fill="none" stroke-linecap="round"/>
<!-- Dimples -->
<circle cx="50" cy="72" r="1" fill="#c0957a" opacity="0.2"/>
<circle cx="70" cy="72" r="1" fill="#c0957a" opacity="0.2"/>
</svg>
