<svg xmlns="http://www.w3.org/2000/svg" viewBox="0 0 120 120">
<defs>
<linearGradient id="bg" x1="0" y1="0" x2="1" y2="1"><stop offset="0%" stop-color="#fbbf24"/><stop offset="100%" stop-color="#d97706"/></linearGradient>
<linearGradient id="skin" x1="0" y1="0" x2="0" y2="1"><stop offset="0%" stop-color="#fde1c3"/><stop offset="100%" stop-color="#e8c4a0"/></linearGradient>
</defs>
<circle cx="60" cy="60" r="60" fill="url(#bg)"/>
<!-- Neck -->
<path d="M49,82 Q49,90 47,96 L73,96 Q71,90 71,82 Z" fill="url(#skin)"/>
<!-- Suit -->
<path d="M28,120 Q28,95 47,96 L60,108 L73,96 Q92,95 92,120 Z" fill="#292524"/>
<!-- Shirt -->
<path d="M47,96 L55,96 L57,100 Z" fill="#f5f5f4"/>
<path d="M73,96 L65,96 L63,100 Z" fill="#f5f5f4"/>
<!-- Face -->
<ellipse cx="60" cy="58" rx="22" ry="26" fill="url(#skin)"/>
<!-- Hair parted -->
<path d="M38,50 Q38,28 60,26 Q82,28 82,50 L80,46 Q78,32 60,30 Q42,32 40,46 Z" fill="#5c3a1a"/>
<path d="M55,28 Q52,26 50,30 Q54,28 56,30 Z" fill="#5c3a1a"/>
<!-- Eyes -->
<ellipse cx="50" cy="56" rx="3" ry="2.5" fill="#1e3a5f"/>
<ellipse cx="70" cy="56" rx="3" ry="2.5" fill="#1e3a5f"/>
<circle cx="51" cy="55.5" r="0.8" fill="white" opacity="0.6"/>
<circle cx="71" cy="55.5" r="0.8" fill="white" opacity="0.6"/>
<!-- Eyebrows -->
<path d="M45,51 Q50,49 55,51.5" stroke="#4a2c12" stroke-width="1.3" fill="none"/>
<path d="M65,51.5 Q70,49 75,51" stroke="#4a2c12" stroke-width="1.3" fill="none"/>
<!-- Nose -->
<path d="M60,58 Q58,65 57,67 Q60,68 63,67 Q62,65 60,58" fill="#d4a87a" opacity="0.4"/>
<!-- Smile -->
<path d="M53,73 Q60,77 67,73" stroke="#c09570" stroke-width="1.3" fill="none" stroke-linecap="round"/>
</svg>
