<svg xmlns="http://www.w3.org/2000/svg" viewBox="0 0 120 120">
<defs>
<linearGradient id="bg" x1="0" y1="0" x2="1" y2="1"><stop offset="0%" stop-color="#e879f9"/><stop offset="100%" stop-color="#a21caf"/></linearGradient>
<linearGradient id="skin" x1="0" y1="0" x2="0" y2="1"><stop offset="0%" stop-color="#fcd6b8"/><stop offset="100%" stop-color="#e8b896"/></linearGradient>
</defs>
<circle cx="60" cy="60" r="60" fill="url(#bg)"/>
<!-- Neck -->
<path d="M50,82 Q50,88 48,96 L72,96 Q70,88 70,82 Z" fill="url(#skin)"/>
<!-- Blazer -->
<path d="M30,120 Q30,95 48,96 L60,105 L72,96 Q90,95 90,120 Z" fill="#1e1b4b"/>
<!-- Blouse -->
<path d="M48,96 L56,104 L60,101 L64,104 L72,96 Q70,92 60,98 Q50,92 48,96 Z" fill="#e2e8f0"/>
<!-- Face -->
<ellipse cx="60" cy="58" rx="22" ry="26" fill="url(#skin)"/>
<!-- Hair -->
<path d="M38,52 Q36,30 60,28 Q84,30 82,52 L80,48 Q78,36 60,34 Q42,36 40,48 Z" fill="#2d1810"/>
<path d="M38,52 Q36,58 36,65 Q38,60 40,55 Z" fill="#2d1810"/>
<path d="M82,52 Q84,58 84,65 Q82,60 80,55 Z" fill="#2d1810"/>
<!-- Eyes -->
<ellipse cx="50" cy="56" rx="3.5" ry="2.5" fill="#1e1b4b"/>
<ellipse cx="70" cy="56" rx="3.5" ry="2.5" fill="#1e1b4b"/>
<circle cx="51" cy="55.5" r="1" fill="white" opacity="0.7"/>
<circle cx="71" cy="55.5" r="1" fill="white" opacity="0.7"/>
<!-- Eyebrows -->
<path d="M45,51 Q50,49 55,51" stroke="#3d2817" stroke-width="1.2" fill="none"/>
<path d="M65,51 Q70,49 75,51" stroke="#3d2817" stroke-width="1.2" fill="none"/>
<!-- Nose -->
<path d="M60,58 Q58,64 57,66 Q60,67 63,66 Q62,64 60,58" fill="#e0a880" opacity="0.5"/>
<!-- Smile -->
<path d="M52,72 Q60,78 68,72" stroke="#c0876a" stroke-width="1.5" fill="none" stroke-linecap="round"/>
<!-- Earrings -->
<circle cx="37" cy="62" r="2" fill="#fbbf24"/>
<circle cx="83" cy="62" r="2" fill="#fbbf24"/>
</svg>
